<svg id="vector" xmlns="http://www.w3.org/2000/svg" width="108" height="108" viewBox="0 0 25.505 23.9"><rect width="25.505" height="23.9" fill="white"/><g transform="translate(-0.19619231, -0.18384616) scale(1.0153847, 1.0153847)" id="g_0"><g transform="translate(6.595876, 6.543854) scale(0.48277777, 0.45239714)"><path fill="#F01414" d="m12.753,1.599a11.15,11.15 0,1 0,11.15 11.15,11.15 11.15,0 0,0 -11.15,-11.15zM12.753,20.714a7.965,7.965 0,1 1,7.965 -7.965,7.965 7.965,0 0,1 -7.965,7.965z"/><path fill="#F01414" d="m2.733,5.916 l3.186,-3.186A1.599,1.599 0,0 0,3.657 0.468l-3.186,3.186a1.593,1.593 0,0 0,0 2.262,1.593 1.593,0 0,0 2.262,0z"/><path fill="#F01414" d="m25.034,3.654 l-3.186,-3.186a1.599,1.599 0,0 0,-2.262 2.262l3.186,3.186a1.593,1.593 0,0 0,2.262 0,1.593 1.593,0 0,0 0,-2.262z"/><path fill="#F01414" d="m14.878,6.336a0.394,0.394 0,0 1,0.179 0.457L13.637,11.406L16.257,11.406a0.394,0.394 83.678,0 1,0.287 0.665l-6.307,6.701A0.394,0.394 120.343,0 1,9.573 18.386L10.993,13.771L8.373,13.771A0.394,0.394 0,0 1,8.086 13.107l6.307,-6.701a0.394,0.394 0,0 1,0.485 -0.071z"/></g></g></svg>